<?xml version="1.0" encoding="utf-8"?>
<!-- Generator: Adobe Illustrator 26.0.1, SVG Export Plug-In . SVG Version: 6.00 Build 0)  -->
<svg version="1.1" id="Layer_1" xmlns="http://www.w3.org/2000/svg" xmlns:xlink="http://www.w3.org/1999/xlink" x="0px" y="0px"
	 viewBox="0 0 350 91.7" style="enable-background:new 0 0 350 91.7;" xml:space="preserve">
<style type="text/css">
	.st0{fill:#64B800;}
	.st1{fill:#0C0D10;}
</style>
<g>
	<path d="M49.2,0c4.4,0,8.8,0,13.2,0c0,3.3,0,6.5,0,9.8c0,14.3,0,28.7,0,43c0,0.8,0.2,0.9,0.9,0.9c6.9,0,13.8,0,20.7,0
		c0.7,0,0.9-0.1,0.9-0.8c0-6.7,0-13.4,0-20c0-0.6,0.1-0.9,0.8-0.9c3.9,0,7.8,0,11.7,0c0.6,0,0.8,0.1,0.8,0.8c0,19.3,0,38.6,0,57.9
		c0,0.7-0.2,0.8-0.9,0.8c-3.9,0-7.8,0-11.7,0c-0.7,0-0.9-0.2-0.9-0.9c0-7.6,0-15.2,0-22.8c0-0.8-0.2-1-1-1c-6.9,0-13.8,0-20.7,0
		c-0.7,0-0.9,0.2-0.9,0.9c0,7.6,0,15.2,0,22.8c0,0.7-0.1,0.9-0.9,0.9c-3.9,0-7.8,0-11.7,0c-0.7,0-0.8-0.2-0.8-0.8
		c0-30,0-60.1,0-90.1C49.2,0.4,49.1,0.2,49.2,0z"/>
	<path d="M298.8,0c4.4,0,8.8,0,13.2,0c0.2,0.3,0.1,0.7,0.1,1c0,17.9,0,35.7,0,53.6c0,0.3,0,0.6,0,1.2c1-1.3,2-2.4,2.8-3.5
		c5.3-6.5,10.5-13.1,15.8-19.6c0.4-0.5,0.8-0.7,1.5-0.7c5.1,0,10.2,0,15.3,0c0.3,0,0.6-0.1,0.9,0.1c-1.5,1.8-2.9,3.6-4.4,5.5
		c-5.8,7.2-11.6,14.3-17.4,21.5c-0.3,0.4-0.5,0.6-0.1,1.1c7.5,10.4,15,20.8,22.4,31.3c-0.2,0.3-0.5,0.1-0.8,0.1
		c-5.2,0-10.3,0-15.5,0c-0.6,0-0.9-0.2-1.2-0.6c-6.2-8.7-12.4-17.4-18.7-26.1c-0.2-0.2-0.3-0.4-0.5-0.7c-0.2,0.4-0.1,0.7-0.1,1
		c0,8.5,0,16.9,0,25.4c0,0.9-0.2,1-1,1c-3.9,0-7.7,0-11.6,0c-0.5,0-0.7-0.1-0.7-0.7c0-30.2,0-60.4,0-90.6
		C298.8,0.2,298.8,0.1,298.8,0z"/>
	<path d="M240.1,91.7c-1.7,0-3.3,0-4.9,0c-2.5,0-5.1,0-7.6,0c-0.5,0-0.8-0.1-0.9-0.7c-1.1-3.7-2.2-7.5-3.2-11.2
		c-0.2-0.6-0.4-0.7-1-0.7c-2.4,0-4.8,0-7.2,0c-0.6,0-2.2,0-2.7,0c-3.1,0-6.3,0-9.4,0c-0.5,0-0.7,0.2-0.9,0.7
		c-1.1,3.7-2.2,7.5-3.2,11.2c-0.2,0.6-0.4,0.8-1,0.7c-3.9,0-7.9,0-11.8,0c-0.7,0-0.7-0.2-0.5-0.8c5.3-17.1,10.6-34.2,15.9-51.3
		c1.5-4.8,5.4-7.6,10.5-7.7c2.7,0,5.4,0.2,7.7,1.8c2.1,1.4,3.5,3.3,4.2,5.6c3.7,11.8,7.3,23.5,10.9,35.3c1.7,5.4,3.3,10.8,5,16.1
		C239.9,91.1,240,91.4,240.1,91.7z"/>
	<path d="M142.5,32.1c1.9,0,3.9,0,5.8,0c0.6,0,0.8,0.2,1,0.7c2.9,10.2,5.9,20.3,8.9,30.5c1.3,4.4,2.6,8.9,3.8,13.3
		c0.1,0.3,0.2,0.6,0.3,0.9c0.2,0.4,0.3,0.9,0.8,0.9c0.5,0,0.7-0.5,0.8-0.9c0.3-1,0.6-2.1,0.9-3.1c4-13.8,8-27.6,12-41.5
		c0.2-0.7,0.5-0.9,1.2-0.9c3.9,0,7.8,0,11.7,0c0.6,0,0.8,0.1,0.6,0.7c-5.3,17.2-10.7,34.4-16,51.6c-1.4,4.5-5.4,7.3-10.2,7.4
		c-2.7,0.1-5.4-0.2-7.7-1.7c-2.1-1.4-3.6-3.3-4.3-5.6c-5.4-17.2-10.7-34.4-16-51.6c-0.2-0.6-0.1-0.7,0.5-0.7
		C138.5,32.1,140.5,32.1,142.5,32.1z"/>
	<path d="M0.2,81.6c2.1,0.6,4.2,1.1,6.3,1.5c4.6,0.9,9.2,1.3,13.9,0.3c0.8-0.2,1.5-0.4,2.2-0.7c3.2-1.6,4.3-5.3,2.5-8.4
		c-1-1.6-2.5-2.8-4-3.9c-2.7-1.8-5.7-3.2-8.6-4.8c-3-1.6-5.8-3.4-8.2-5.8c-6.6-6.5-4.8-18.2,2.2-23.2c3.2-2.3,6.9-3.5,10.7-4.2
		c5.3-0.9,10.6-0.4,16,0.2c1,0.1,1.9,0.3,2.9,0.4c0.4,0,0.5,0.1,0.5,0.6c0,2.3,0,4.5,0,6.8c0,0.5-0.2,0.5-0.6,0.5
		c-2.8-0.3-5.7-0.7-8.5-1c-2.9-0.3-5.8-0.3-8.7,0.6c-1.6,0.5-3.1,1.3-3.8,3.1c-0.6,1.7-0.3,3.2,0.8,4.6c1.6,2,3.7,3.3,5.9,4.5
		c3.4,1.9,7,3.6,10.3,5.8c3,2,5.7,4.2,7.5,7.4c3.6,6.1,2.6,16.8-5.8,21.7c-3.5,2-7.3,3.1-11.2,3.6C15,92.1,7.9,91.3,0.9,89.6
		c-0.3-0.1-0.7,0-0.7-0.5C0.2,86.6,0.2,84.1,0.2,81.6z"/>
	<path d="M246.5,0.1c4.4-0.1,8.9-0.1,13.3,0c0,30.2,0,60.4,0,90.6c0,0.7-0.2,0.9-0.9,0.9c-3.9,0-7.8,0-11.7,0
		c-0.6,0-0.8-0.2-0.8-0.8C246.5,60.5,246.5,30.3,246.5,0.1z"/>
	<path d="M286,61.9c0,9.6,0,19.2,0,28.8c0,0.7-0.2,0.9-0.9,0.9c-3.9,0-7.8,0-11.7,0c-0.6,0-0.8-0.2-0.8-0.8c0-19.3,0-38.7,0-58
		c0-0.6,0.2-0.8,0.8-0.8c3.9,0,7.8,0,11.7,0c0.7,0,0.8,0.2,0.8,0.8C285.9,42.6,286,52.2,286,61.9z"/>
	<path d="M124.1,61.8c0,9.6,0,19.2,0,28.8c0,0.7-0.2,0.9-0.9,0.9c-3.9,0-7.7,0-11.6,0c-0.7,0-0.8-0.2-0.8-0.8c0-19.3,0-38.6,0-57.9
		c0-0.6,0.1-0.8,0.8-0.8c3.9,0,7.8,0,11.7,0c0.7,0,0.8,0.2,0.8,0.8C124,42.5,124.1,52.2,124.1,61.8z"/>
	<path class="st0" d="M212.6,50c-1.4,5.9-1.7,11.8-1.3,17.8c0.2,3.4,0.8,6.7,1.6,10.1c-1.7-0.5-3.2-1.3-4.5-2.3
		c-3.4-2.7-4.5-6.3-4-10.4c0.9-7.3,4.6-13.4,8.8-19.3c0.1-0.1,0.2-0.1,0.3-0.3c1.2,5,4,9.3,6,14c1,2.5,1.9,5,2,7.8
		c0.1,3.5-1.3,6.2-4.1,8.3c-0.8,0.6-1.7,1.1-2.6,1.6c-0.4,0.2-0.7,0.2-0.8-0.4c-1.6-6.7-2.4-13.5-1.8-20.3c0.2-2.2,0.4-4.3,0.6-6.5
		c0-0.3,0-0.6,0.1-0.9c0.1-0.3,0.2-0.6,0.2-1c0.1-0.2,0.2-0.4,0.2-0.5c0,0.1-0.1,0.3-0.2,0.5c0,0.3-0.1,0.6-0.2,1
		C212.8,49.6,212.7,49.8,212.6,50z"/>
</g>
<g id="g46_9_" transform="translate(1859.944 665.486)">
	<path id="path48_9_" class="st1" d="M-1516.2-659.8c0-0.6-0.4-1-1-1c0,0-0.1,0-0.1,0h-1.4v2h1.4
		C-1516.8-658.7-1516.3-659.2-1516.2-659.8C-1516.2-659.7-1516.2-659.8-1516.2-659.8 M-1514.4-654.4l-1.7-3.3c0.9-0.3,1.4-1.1,1.4-2
		c0-1.3-1-2.3-2.3-2.4c-0.1,0-0.1,0-0.2,0h-3v7.7h1.5v-3.1h1.1l1.5,3.1L-1514.4-654.4L-1514.4-654.4z M-1517.7-665.5
		c4,0,7.2,3.2,7.2,7.1c0,4-3.2,7.2-7.1,7.2c-4,0-7.2-3.2-7.2-7.1v0C-1524.8-662.3-1521.6-665.5-1517.7-665.5"/>
</g>
<path d="M213.1,47.9c0,0-3.8,17,2.2,34.2l-0.9,1.1C214.4,83.3,207.9,66.4,213.1,47.9z"/>
</svg>
